# xmcd
# Track frame offsets:
# 150
# 11650
# 31602
# 46425
# 60395
# 73882
# 83917
# 97540
# 111360
# 130175
# 145922
# 162165
# 179400
# 193767
# 206430
# 216977
# 231075
# 245502
# 259955
# 273280
# 284440
#
# Disc length: 4030 seconds
# Revision: 0
# Processed by: cddbd v1.4PL0 Copyright (c) Steve Scherf et al.
# Submitted via: VisiTrax 2.9.5.180 - For more info visit www.synapsa.com
#
DISCID=310fbc15
DTITLE=Merle Haggard - 1996
DYEAR=1996
DGENRE=
TTITLE0=Sin Cit blues
TTITLE1=No time to cry
TTITLE2=Beer can Hill
TTITLE3=Truck driver's blues
TTITLE4=Too many highways
TTITLE5=Five days a week
TTITLE6=Kids get lonesome too
TTITLE7=If anyone ought to know
TTITLE8=Untanglin' my mind
TTITLE9=Winds of change
TTITLE10=I am an island
TTITLE11=In my next life
TTITLE12=Way back in the mountains
TTITLE13=What's new in New York City
TTITLE14=Set my chickens free
TTITLE15=Chores
TTITLE16=Valentine
TTITLE17=Solid as a rock
TTITLE18=Bye bye travelin' blues
TTITLE19=Troubador
TTITLE20=Ramblin' fever
EXTD=
EXTT0=
EXTT1=
EXTT2=
EXTT3=
EXTT4=
EXTT5=
EXTT6=
EXTT7=
EXTT8=
EXTT9=
EXTT10=
EXTT11=
EXTT12=
EXTT13=
EXTT14=
EXTT15=
EXTT16=
EXTT17=
EXTT18=
EXTT19=
EXTT20=
PLAYORDER=
